HIERARCHY
ROOT Hips
{
  OFFSET 0 0 0
  CHANNELS 6 Xposition Yposition Zposition Zrotation Yrotation Xrotation
  JOINT LeftThigh
  {
    OFFSET 8.409438 0 -5.917753
    CHANNELS 3 Zrotation Yrotation Xrotation
    JOINT LeftLeg
    {
      OFFSET 0 0 -42.358652
      CHANNELS 3 Zrotation Yrotation Xrotation
      JOINT LeftFoot
      {
        OFFSET 0 0 -39.357303
        CHANNELS 3 Zrotation Yrotation Xrotation
      }
    }
  }
  JOINT RightThigh
  {
    OFFSET -8.409438 0 -5.917753
    CHANNELS 3 Zrotation Yrotation Xrotation
    JOINT RightLeg
    {
      OFFSET 0 0 -42.358652
      CHANNELS 3 Zrotation Yrotation Xrotation
      JOINT RightFoot
      {
        OFFSET 0 0 -39.357303
        CHANNELS 3 Zrotation Yrotation Xrotation
      }
    }
  }
  JOINT SpineLow
  {
    OFFSET 0 0 4.719101
    CHANNELS 3 Zrotation Yrotation Xrotation
    JOINT SpineMid
    {
      OFFSET 0 0 12.899191
      CHANNELS 3 Zrotation Yrotation Xrotation
      JOINT Chest
      {
        OFFSET 0 0 12.899191
        CHANNELS 3 Zrotation Yrotation Xrotation
        JOINT LeftShoulder
        {
          OFFSET 7.550562 1.41573 9.438202
          CHANNELS 3 Zrotation Yrotation Xrotation
          JOINT LeftArm
          {
            OFFSET 9.155056 0 4.247191
            CHANNELS 3 Zrotation Yrotation Xrotation
            JOINT LeftForearm
            {
              OFFSET 0 0 25.771955
              CHANNELS 3 Zrotation Yrotation Xrotation
              JOINT LeftHand
              {
                OFFSET 0 0 25.197169
                CHANNELS 3 Zrotation Yrotation Xrotation
              }
            }
          }
        }
        JOINT RightShoulder
        {
          OFFSET -7.550562 1.41573 9.438202
          CHANNELS 3 Zrotation Yrotation Xrotation
          JOINT RightArm
          {
            OFFSET -9.155056 0 4.247191
            CHANNELS 3 Zrotation Yrotation Xrotation
            JOINT RightForearm
            {
              OFFSET 0 0 -25.771955
              CHANNELS 3 Zrotation Yrotation Xrotation
              JOINT RightHand
              {
                OFFSET 0 0 -25.197169
                CHANNELS 3 Zrotation Yrotation Xrotation
              }
            }
          }
        }
        JOINT Neck
        {
          OFFSET 0 0 15.101124
          CHANNELS 3 Zrotation Yrotation Xrotation
          JOINT Head
          {
            OFFSET 0 0 11.325843
            CHANNELS 3 Zrotation Yrotation Xrotation
            End Site
            {
              OFFSET 0 0 14.157303
            }
          }
        }
      }
    }
  }
}
MOTION
Frames: 7
Frame Time: 0.0
0.0  101.685394  0.0  113.222038  -42.094604  164.329363  30.198992  -28.828829  5.287878  12.514169  -7.350805  43.193342  -20.562936  -8.230782  1.651684  -0.641244  32.83658  -21.91497  11.9752  -1.627214  23.925186  19.166591  17.151359  2.787291  3.157558  2.442131  4.18178  9.047578  6.093081  11.758485  9.047577  6.093081  11.758485  6.849833  16.940536  12.144744  159.104726  28.445521  163.560727  -37.663584  16.861488  79.214239  52.138437  -43.852691  39.603564  19.124272  -4.733622  22.913432  109.03464  70.720177  23.983164  -23.906566  -16.50709  -103.811521  69.881515  35.939139  16.251389  7.719229  18.439347  4.374318  5.602466  13.887409  3.012054  
0.0  101.685394  0.0  110.777586  -42.316123  166.160978  25.589322  -27.727312  3.719437  12.459605  -4.613486  48.354611  -18.603167  -7.558814  1.648678  -2.903666  34.250601  -23.029751  10.976395  -2.673416  25.070898  20.106542  17.396181  3.119968  3.096243  2.428727  4.182342  8.877624  6.067663  11.752689  8.877625  6.067663  11.75269  7.592017  16.952067  12.410794  159.402846  28.208076  163.681025  -36.84399  16.206205  79.615275  51.459588  -43.597872  40.413911  19.75486  -5.171638  23.276266  111.70349  71.30834  27.089752  -24.400784  -16.381246  -103.838059  69.70293  35.517499  16.283526  7.956572  18.148245  4.542967  5.777749  13.673123  3.135209  
0.0  101.685394  0.0  107.868164  -42.719882  168.54937  22.565871  -27.825085  1.618083  11.613346  -0.118331  52.626722  -15.731171  -6.959209  1.820517  -4.942547  34.940673  -23.741336  9.742686  -2.923152  26.12771  20.868002  17.765986  3.385681  2.998035  2.369579  4.088944  8.590235  5.937169  11.479949  8.590235  5.937169  11.479949  8.538189  17.122009  13.189767  159.374952  28.39284  163.717928  -36.097437  15.378205  79.922939  51.108878  -43.655998  40.950798  20.264453  -5.744235  23.927487  113.617408  71.766117  29.565928  -24.559956  -16.232309  -103.984058  69.447413  35.170262  16.304846  8.272798  17.814144  4.953448  6.005355  13.430703  3.436996  
0.0  101.685394  0.0  104.778331  -43.251928  171.163695  21.474968  -28.798555  -0.803688  10.636512  4.930702  55.745733  -13.077495  -6.565921  2.255489  -7.140951  34.539136  -24.154218  9.308096  -2.522593  27.011222  21.040688  18.325837  3.52008  2.931967  2.278382  3.961171  8.382318  5.71761  11.111594  8.382319  5.71761  11.111594  9.10665  17.135288  13.864248  159.1413  28.586537  163.608076  -35.523426  14.056039  80.057703  50.873915  -44.117216  41.307665  20.495319  -6.313652  24.665453  114.566887  72.172069  31.146228  -24.423299  -16.077527  -104.275332  69.20631  34.826323  16.370169  8.451408  17.407249  5.432859  6.130274  13.133799  3.796017  
0.0  101.685394  0.0  101.510184  -43.842832  173.993617  21.471718  -30.370609  -3.616213  10.131737  10.096168  58.130382  -10.383959  -6.408945  3.076657  -9.558337  33.50037  -24.401713  9.929167  -1.976033  27.638714  20.136537  18.751006  3.545135  2.904279  2.1711  3.857934  8.279201  5.443928  10.811602  8.279202  5.443929  10.811602  9.35752  17.142085  14.210413  158.646333  28.852977  163.534211  -35.116806  12.001491  79.978534  50.535231  -44.887202  41.569092  20.470117  -6.754785  25.172348  114.755691  72.47694  32.070129  -24.103376  -15.929769  -104.714286  69.031987  34.489449  16.481632  8.338835  16.971782  5.766901  6.043718  12.810739  4.056064  
0.0  101.685394  0.0  98.114568  -44.18056  176.975345  22.522897  -31.607877  -6.745804  10.760337  13.611332  60.536884  -9.023274  -6.821215  3.808196  -11.518796  32.602568  -24.469639  10.712716  -1.601035  28.237283  18.766502  19.392104  3.628637  2.900186  2.109874  3.795138  8.252479  5.286148  10.630879  8.25248  5.286149  10.63088  9.352696  17.030397  14.162285  158.221335  29.084142  163.67535  -34.697201  9.315949  79.747811  49.999042  -45.765108  41.699376  20.427507  -7.117067  25.430201  114.496413  72.727029  32.756359  -23.768311  -15.752168  -105.269604  68.920235  34.152791  16.643594  8.001857  16.496195  5.896568  5.796644  12.452369  4.170727  
0.0  101.685394  0.0  94.677036  -44.232422  179.959689  24.407709  -32.15256  -10.050352  11.911709  14.819137  63.492156  -9.091384  -7.396543  3.970602  -12.875484  32.393034  -24.390736  11.01699  -1.599952  28.887803  17.406993  20.1684  3.790795  2.910046  2.096699  3.767134  8.275026  5.252301  10.553188  8.275026  5.252301  10.553188  9.259013  16.825139  13.861649  157.930423  29.330896  164.063153  -34.246621  6.356766  79.421938  49.192469  -46.556927  41.736951  20.509703  -7.558984  25.414164  114.156958  72.742405  33.677484  -23.610249  -15.511818  -105.858115  68.839013  33.863509  16.777331  7.566528  15.984285  5.917672  5.479637  12.064229  4.207159  
